<?xml version="1.0" encoding="UTF-8" standalone="no"?>
<!-- Uploaded to: SVG Repo, www.svgrepo.com, Generator: SVG Repo Mixer Tools -->

<svg
   width="3100"
   height="800"
   viewBox="0 0 62 16"
   fill="none"
   version="1.1"
   id="svg1"
   sodipodi:docname="shield-svgrepo-com.svg"
   xml:space="preserve"
   inkscape:version="1.4.3 (0d15f75, 2025-12-25)"
   inkscape:export-filename="shield-svgrepo-com.png"
   inkscape:export-xdpi="96"
   inkscape:export-ydpi="96"
   xmlns:inkscape="http://www.inkscape.org/namespaces/inkscape"
   xmlns:sodipodi="http://sodipodi.sourceforge.net/DTD/sodipodi-0.dtd"
   xmlns="http://www.w3.org/2000/svg"
   xmlns:svg="http://www.w3.org/2000/svg"><defs
     id="defs1"><rect
       x="828.00641"
       y="153.46671"
       width="2230.6208"
       height="485.38309"
       id="rect1" /><clipPath
       clipPathUnits="userSpaceOnUse"
       id="clipPath4"><path
         d="M 280.96576,869.9456 514.56,1036.8 748.1536,869.9456 C 882.7072,773.8368 962.56,618.66688 962.56,453.31584 V 204.8 l -448,-192 -448,192 v 248.51584 c 0,165.35104 79.85472,320.52096 214.40576,416.62976 z"
         fill="#000000"
         id="path5"
         style="fill:#1f3a52;fill-opacity:1;stroke-width:64" /></clipPath></defs><sodipodi:namedview
     id="namedview1"
     pagecolor="#ffffff"
     bordercolor="#000000"
     borderopacity="0.25"
     inkscape:showpageshadow="2"
     inkscape:pageopacity="0.0"
     inkscape:pagecheckerboard="0"
     inkscape:deskcolor="#d1d1d1"
     inkscape:zoom="0.28019106"
     inkscape:cx="1682.7803"
     inkscape:cy="349.76134"
     inkscape:window-width="1440"
     inkscape:window-height="878"
     inkscape:window-x="-6"
     inkscape:window-y="-6"
     inkscape:window-maximized="1"
     inkscape:current-layer="svg1" /><path
     d="M 4.35009,13.3929 8,16 11.6499,13.3929 C 13.7523,11.8912 15,9.46667 15,6.88306 V 3 L 8,0 1,3 v 3.88306 c 0,2.58361 1.24773,5.00814 3.35009,6.50984 z"
     fill="#000000"
     id="path1"
     style="fill:#1f3a52;fill-opacity:1" /><g
     id="g1"
     transform="matrix(0.015625,0,0,0.015625,-0.04,-0.2)"
     style="fill:#ef5f33;fill-opacity:1"
     clip-path="url(#clipPath4)"><path
       d="m 140.8,170.66667 128,128 c -8.53333,12.8 -12.8,27.73333 -12.8,42.66666 0,46.93334 38.4,85.33334 85.33333,85.33334 46.93334,0 85.33334,-38.4 85.33334,-85.33334 C 426.66667,294.4 388.26667,256 341.33333,256 326.4,256 311.46667,260.26667 298.66667,268.8 l -128,-128 c -12.8,6.4 -23.46667,17.06667 -29.86667,29.86667 z m 200.53333,138.66666 c 17.06667,0 32,14.93334 32,32 0,17.06667 -14.93333,32 -32,32 -17.06666,0 -32,-14.93333 -32,-32 0,-17.06666 14.93334,-32 32,-32 z m 541.86667,544 -128,-128 c 8.53333,-12.8 12.8,-27.73333 12.8,-42.66666 0,-46.93334 -38.4,-85.33334 -85.33333,-85.33334 -46.93334,0 -85.33334,38.4 -85.33334,85.33334 0,46.93333 38.4,85.33333 85.33334,85.33333 14.93333,0 29.86666,-4.26667 42.66666,-12.8 l 128,128 C 866.13333,876.8 876.8,866.13333 883.2,853.33333 Z M 682.66667,714.66667 c -17.06667,0 -32,-14.93334 -32,-32 0,-17.06667 14.93333,-32 32,-32 17.06666,0 32,14.93333 32,32 0,17.06666 -14.93334,32 -32,32 z M 341.33333,768 c 46.93334,0 85.33334,-38.4 85.33334,-85.33333 0,-14.93334 -4.26667,-29.86667 -12.8,-42.66667 L 640,413.86667 c 12.8,8.53333 27.73333,12.8 42.66667,12.8 C 729.6,426.66667 768,388.26667 768,341.33333 768,294.4 729.6,256 682.66667,256 c -46.93334,0 -85.33334,38.4 -85.33334,85.33333 0,14.93334 4.26667,29.86667 12.8,42.66667 L 384,610.13333 c -12.8,-8.53333 -27.73333,-12.8 -42.66667,-12.8 C 294.4,597.33333 256,635.73333 256,682.66667 256,729.6 294.4,768 341.33333,768 Z M 682.66667,309.33333 c 17.06666,0 32,14.93334 32,32 0,17.06667 -14.93334,32 -32,32 -17.06667,0 -32,-14.93333 -32,-32 0,-17.06666 14.93333,-32 32,-32 z M 341.33333,650.66667 c 17.06667,0 32,14.93333 32,32 0,17.06666 -14.93333,32 -32,32 -17.06666,0 -32,-14.93334 -32,-32 0,-17.06667 14.93334,-32 32,-32 z"
       fill="#ffc107"
       id="path2"
       style="fill:#ef5f33;fill-opacity:1" /></g><text
     xml:space="preserve"
     transform="matrix(0.02,0,0,0.02,0,0.78517851)"
     id="text1"
     style="font-style:normal;font-variant:normal;font-weight:600;font-stretch:normal;font-size:341.333px;font-family:Montserrat;-inkscape-font-specification:'Montserrat Semi-Bold';writing-mode:lr-tb;direction:ltr;white-space:pre;shape-inside:url(#rect1);display:inline;fill:#1f3a52;fill-opacity:1"><tspan
       x="828.00586"
       y="467.18375"
       id="tspan4">Compl<tspan
   style="fill:#ff5f33"
   id="tspan3">AI</tspan>nce</tspan></text></svg>
